<?xml version="1.0" encoding="utf-8"?>
<!-- Svg Vector Icons : http://www.onlinewebfonts.com/icon -->
<!DOCTYPE svg PUBLIC "-//W3C//DTD SVG 1.1//EN" "http://www.w3.org/Graphics/SVG/1.1/DTD/svg11.dtd">
<svg version="1.1" xmlns="http://www.w3.org/2000/svg" xmlns:xlink="http://www.w3.org/1999/xlink" x="0px" y="0px" viewBox="0 0 1000 1000" enable-background="new 0 0 1000 1000" xml:space="preserve">
<metadata> Svg Vector Icons : http://www.onlinewebfonts.com/icon </metadata>
<g><path d="M500,990c-130.9,0-253.9-51-346.5-143.5C61,753.9,10,630.9,10,500c0-130.9,51-253.9,143.5-346.5C246.1,61,369.1,10,500,10c130.9,0,253.9,51,346.5,143.5C939,246.1,990,369.1,990,500c0,130.9-51,253.9-143.5,346.5C753.9,939,630.9,990,500,990z M500,57.3c-118.3,0-229.4,46-313,129.7C103.3,270.6,57.3,381.7,57.3,500c0,118.3,46,229.4,129.7,313c83.6,83.6,194.8,129.7,313,129.7c118.3,0,229.4-46.1,313-129.7c83.6-83.6,129.7-194.8,129.7-313c0-118.3-46-229.4-129.7-313C729.4,103.3,618.3,57.3,500,57.3z"/><path d="M513.2,453V346.2c-5.5-0.5-10.8-1.1-15.3-1.9v-0.2h-0.8H497l0,0h0.2h0.8v0.2h-0.4h-0.4l0,0c0,0-0.2,0.2-0.4,0.2c-5.8,0.8-13,1.7-21.1,2.4V453H255.6v-85.1c0-13.4,10.7-24.1,24.1-24.1H380c-26.9-5.6-47.1-17.2-47.9-38.4c-0.8-25.1,27.5-65.6,68.8-56.3c42.6,9.6,72.4,42.6,95.2,70.8c23-28.8,55.6-65.9,100.1-71.8c37.2-4.7,67.9,32.4,63.9,56.9c-3.4,21.5-24,33.2-50.2,38.8h99c13.4,0,24.1,10.7,24.1,24.1V453L513.2,453L513.2,453z M405.5,271.2c-20.6-8.1-32.6,0.6-41.3,14.9c-4.7,8.1-9.8,18.8-2.3,26.7c19.8,20.4,74.1,18.9,110.5,15.1C455.3,306.5,434.2,282.6,405.5,271.2L405.5,271.2z M630.5,312.7c14.1-18.1-13.6-55.8-43.4-41.8c-28.5,13.4-49,35.2-66.8,56.7c15.3,1.3,30.7,1.7,46,0.9C585.1,327.8,619.6,326.5,630.5,312.7L630.5,312.7z M477.2,707.7H297.8c-12.1,0-21.9-9.8-21.9-22V470.2h201.2L477.2,707.7L477.2,707.7z M712.9,685.7c0,12.3-9.8,22-21.9,22H511.7V470.2h201.2V685.7L712.9,685.7z"/></g>
</svg>