<?xml version="1.0" encoding="utf-8"?>
<!-- Svg Vector Icons : http://www.onlinewebfonts.com/icon -->
<!DOCTYPE svg PUBLIC "-//W3C//DTD SVG 1.1//EN" "http://www.w3.org/Graphics/SVG/1.1/DTD/svg11.dtd">
<svg version="1.1" xmlns="http://www.w3.org/2000/svg" xmlns:xlink="http://www.w3.org/1999/xlink" x="0px" y="0px" viewBox="0 0 1000 1000" enable-background="new 0 0 1000 1000" xml:space="preserve">
<metadata> Svg Vector Icons : http://www.onlinewebfonts.com/icon </metadata>
<g><path d="M500,938.4c-4.3,0-8.6-1.1-12.5-3.3c-4.8-2.7-120-67.1-236.8-172.6c-69.2-62.4-124.4-126.3-164.2-189.8C35.7,491.7,10,410.8,10,332.4C10,183,131.5,61.6,280.8,61.6c50.5,0,104.2,18.9,151.2,53.3c27.4,20.1,50.8,44.4,68,70.1c17.2-25.7,40.6-50,68-70.1C615,80.5,668.7,61.6,719.2,61.6C868.5,61.6,990,183,990,332.4c0,78.5-25.7,159.3-76.4,240.4c-39.8,63.5-95,127.4-164.1,189.8c-116.9,105.5-232,170-236.9,172.6C508.7,937.3,504.4,938.4,500,938.4L500,938.4z M280.8,113.2c-120.8,0-219.2,98.4-219.2,219.2c0,156.8,121.2,299.3,222.9,391.2c90.8,82.1,182.8,139.7,215.5,159.2c32.8-19.5,124.8-77.1,215.5-159.2c101.7-91.9,222.9-234.4,222.9-391.2c0-120.9-98.4-219.2-219.2-219.2c-87.8,0-173.2,72.3-194.8,137.1c-3.5,10.5-13.4,17.6-24.4,17.6c-11.1,0-20.9-7.1-24.4-17.6C453.9,185.4,368.6,113.2,280.8,113.2z"/></g>
</svg>