<?xml version="1.0" encoding="utf-8"?>
<!-- Svg Vector Icons : http://www.onlinewebfonts.com/icon -->
<!DOCTYPE svg PUBLIC "-//W3C//DTD SVG 1.1//EN" "http://www.w3.org/Graphics/SVG/1.1/DTD/svg11.dtd">
<svg version="1.1" xmlns="http://www.w3.org/2000/svg" xmlns:xlink="http://www.w3.org/1999/xlink" x="0px" y="0px" viewBox="0 0 1000 1000" enable-background="new 0 0 1000 1000" xml:space="preserve">
<metadata> Svg Vector Icons : http://www.onlinewebfonts.com/icon </metadata>
<g><path d="M783.6,373.9"/><path d="M861.3,550L990,372.3h-89.6C845.3,183.6,670.9,45.7,464.3,45.7C213.4,45.7,10,249.1,10,500s203.4,454.3,454.3,454.3c153.4,0,289.1-76.1,371.4-192.5l-47-29.9c-72.3,101-190.7,166.8-324.4,166.8C244.1,898.7,65.6,720.2,65.6,500c0-220.2,178.5-398.7,398.7-398.7c175.5,0,324.6,113.5,377.8,271l-108.6,0L861.3,550z"/><path d="M593.2,427.6L593.2,427.6H569v-44.2h0c-0.2-61.1-49.8-110.7-111-110.7c-61.1,0-110.7,49.4-111,110.4h0v44.5h-24.2c-12.3,0-22.2,9.9-22.2,22.2v208.9c0,12.3,9.9,22.2,22.2,22.2h270.5c12.3,0,22.2-9.9,22.2-22.2V449.8C615.4,437.6,605.5,427.7,593.2,427.6z M458,314c36.4,0,66.7,29.4,66.9,65.8h-0.3v48.3H391.4v-48.5h-0.3C391.5,343.3,421.6,314,458,314z M551.9,491.4v126.2H364.1V491.4"/></g>
</svg>